<?xml version="1.0" encoding="utf-8"?>
<!-- Svg Vector Icons : http://www.onlinewebfonts.com/icon -->
<!DOCTYPE svg PUBLIC "-//W3C//DTD SVG 1.1//EN" "http://www.w3.org/Graphics/SVG/1.1/DTD/svg11.dtd">
<svg version="1.1" xmlns="http://www.w3.org/2000/svg" xmlns:xlink="http://www.w3.org/1999/xlink" x="0px" y="0px" viewBox="0 0 1000 1000" enable-background="new 0 0 1000 1000" xml:space="preserve">
<metadata> Svg Vector Icons : http://www.onlinewebfonts.com/icon </metadata>
<g><path d="M920.9,78.3H79.4v843.4h519.5v69.2H10v-69.2h0.3V78.3H10V9.1h980V10v68.3v459.9h-69.1V78.3z M415.9,739.3l-228.8-1.7h-40l2-159.8h50.6l0,0.3l301.9,1.7v50.6l-302.5-1.7l-0.7,58.5l217.5,1.7V739.3z M795.9,246.8v1.5h2.6l-2,161.5h-0.6v1.5l-597.1-1.9l0,0.4h-50.6l1.7-138.7v-26.3L795.9,246.8z M746.6,360.5l0.8-63.3l-547.1-1.7l-0.8,63.3L746.6,360.5z M790,577.7c110.5,0,200,89.6,200,200s-89.6,200-200,200c-110.5,0-200-89.6-200-200S679.5,577.7,790,577.7z M673.6,802.6l91.1,0.4l-0.4,91.5l50.5-0.2l0.4-91l91.5,0.4l-0.2-50.6l-91.1-0.4l0.4-91.5l-50.5,0.2l-0.4,91.1l-91.5-0.4L673.6,802.6z"/></g>
</svg>