<?xml version="1.0" encoding="utf-8"?>
<!-- Svg Vector Icons : http://www.onlinewebfonts.com/icon -->
<!DOCTYPE svg PUBLIC "-//W3C//DTD SVG 1.1//EN" "http://www.w3.org/Graphics/SVG/1.1/DTD/svg11.dtd">
<svg version="1.1" xmlns="http://www.w3.org/2000/svg" xmlns:xlink="http://www.w3.org/1999/xlink" x="0px" y="0px" viewBox="0 0 1000 1000" enable-background="new 0 0 1000 1000" xml:space="preserve">
<metadata> Svg Vector Icons : http://www.onlinewebfonts.com/icon </metadata>
<g><g transform="translate(0.000000,511.000000) scale(0.100000,-0.100000)"><path d="M229.2,4704.9C87.4,4622.5,96.9,5003.9,102.7,146.4l5.7-4361.2l57.5-93.9c40.2-63.2,92-115,162.9-155.2l103.5-63.2H5077c4265.4,0,4648.6,1.9,4698.4,30.7c95.8,57.5,124.6,132.2,124.6,323.8c0,201.2-36.4,285.5-143.7,339.2c-63.2,32.6-308.5,34.5-4294.1,34.5c-4566.2,0-4301.8-5.7-4445.5,95.8c-30.7,23-78.6,80.5-107.3,130.3l-53.6,90.1l-9.6,4014.3c-9.6,3993.3-9.6,4014.4-47.9,4081.4c-59.4,101.6-141.8,134.1-335.3,134.1C330.7,4747.1,286.6,4737.5,229.2,4704.9z"/><path d="M7878.4,3470.9c-521.2-195.4-963.8-369.8-981.1-385.2c-76.6-69-42.1-113.1,228-281.7c222.3-138,260.6-183.9,251-298.9c-5.7-76.6-88.1-208.9-732-1182.3c-398.6-605.5-745.4-1109.5-774.1-1128.6c-124.6-82.4-124.6-82.4-1337.5,375.6c-1197.6,454.1-1218.7,459.9-1354.7,389c-93.9-47.9-1473.5-1715-1544.4-1864.4l-49.8-105.4l-11.5-766.5c-7.7-421.6-5.7-785.6,3.8-810.5c19.2-47.9,51.7-53.6,97.7-19.2c17.2,13.4,429.2,490.5,915.9,1059.6c617,722.4,908.3,1048.1,963.8,1080.7c143.7,86.2,151.4,84.3,1368.1-379.4c1203.3-456,1224.4-461.8,1349-381.3c47.9,32.6,341.1,457.9,1055.8,1527.2c546.1,816.3,1013.6,1506.1,1040.5,1532.9c38.3,40.2,67.1,49.8,139.9,49.8c78.6-1.9,118.8-19.2,341.1-159c138-86.2,268.3-157.1,291.3-157.1c92,0,92,28.7-9.6,1132.5l-93.9,1038.5l-53.7,44.1c-28.8,24.9-74.7,46-103.5,44.1C8849.9,3825.4,8399.6,3666.4,7878.4,3470.9z"/></g></g>
</svg>