<?xml version="1.0" encoding="utf-8"?>
<!-- Svg Vector Icons : http://www.onlinewebfonts.com/icon -->
<!DOCTYPE svg PUBLIC "-//W3C//DTD SVG 1.1//EN" "http://www.w3.org/Graphics/SVG/1.1/DTD/svg11.dtd">
<svg version="1.1" xmlns="http://www.w3.org/2000/svg" xmlns:xlink="http://www.w3.org/1999/xlink" x="0px" y="0px" viewBox="0 0 1000 1000" enable-background="new 0 0 1000 1000" xml:space="preserve">
<metadata> Svg Vector Icons : http://www.onlinewebfonts.com/icon </metadata>
<g><path d="M214.2,499.9h449.2v-81.6H214.2V499.9z M10,10v980h520.6l-63.8-81.7H91.7V91.6h816.7v204.2H990V10H10z M908.3,908.3H793.5L745,990h245V619.9l-81.7,122.5V908.3z M745,255H214.2v81.7H745V255z M807.5,435.7l131.6,79.9c5.2,3.1,7,10.1,4,15.6L981,462c18-32.7,7.3-74.7-23.8-93.6l-37.6-22.7c-31.2-18.9-71-7.7-88.9,25l-38,69.2C795.7,434.4,802.4,432.5,807.5,435.7z M840,719l32.5-59.4l70.6-128.4c-3,5.5-9.6,7.3-14.8,4.2l-131.6-79.9c-5.2-3.2-6.9-10.1-4-15.6l-70.5,128.4l-32.6,59.4l-65.1,118.5c-43.3,79.1-52.1,231.9-34.5,242.6c20,12.1,141.5-72.3,184.9-151.3L840,719z M612.8,950c-37.5-22.8,19.6-172.6,19.6-172.6l112.7,68.5C745.2,845.9,650.5,972.8,612.8,950z"/></g>
</svg>