<?xml version="1.0" encoding="utf-8"?>
<!-- Svg Vector Icons : http://www.onlinewebfonts.com/icon -->
<!DOCTYPE svg PUBLIC "-//W3C//DTD SVG 1.1//EN" "http://www.w3.org/Graphics/SVG/1.1/DTD/svg11.dtd">
<svg version="1.1" xmlns="http://www.w3.org/2000/svg" xmlns:xlink="http://www.w3.org/1999/xlink" x="0px" y="0px" viewBox="0 0 1000 1000" enable-background="new 0 0 1000 1000" xml:space="preserve">
<metadata> Svg Vector Icons : http://www.onlinewebfonts.com/icon </metadata>
<g><g transform="translate(0.000000,512.000000) scale(0.100000,-0.100000)"><path d="M565.1,4993.2c-168.4-53.6-336.9-204.8-413.4-371.3l-42.1-90l-5.7-2233.7L100,64.5l45.9-53.6l45.9-53.6h658.4c587.6,0,666.1,3.8,746.5,34.5c124.4,47.9,235.4,174.2,275.6,312c61.2,214.4-7.7,392.4-204.8,526.4c-245,166.5-323.5,403.9-208.6,629.7c49.8,95.7,126.3,162.7,258.4,224c105.3,49.8,132.1,53.6,344.5,53.6c206.7,0,239.3-5.7,335-49.8c57.4-26.8,132.1-72.7,166.5-101.4c208.6-176.1,181.8-549.3-49.8-708.2c-223.9-151.2-306.3-294.8-283.3-491.9c26.8-216.3,178-379,394.3-419.2c61.3-11.5,522.5-19.1,1152.3-19.1h1050.8v-1098.7v-1100.6l-49.8-38.3c-95.7-74.6-153.1-51.7-254.6,97.6c-116.8,174.2-331.1,306.3-557,342.6c-398.1,63.2-784.8-229.7-890-673.7c-36.4-160.8-36.4-449.8,1.9-597.2c72.7-279.5,231.6-488.1,461.3-601c137.8-67,155-72.7,319.6-70.8c130.2,1.9,201,11.5,279.5,42.1c134,53.6,275.6,160.8,359.8,271.8c116.8,158.9,139.7,176.1,202.9,164.6c128.2-26.8,126.3-17.2,126.3-608.7v-532.1H2760.5c-1713.1,0-2078.7,3.8-2130.3,26.8c-74.7,30.6-157,116.7-183.8,189.5c-15.3,36.4-21.1,645-21.1,1910.2v1856.6l-47.9,45.9c-63.2,65.1-166.5,65.1-231.6,0L100-471.5l3.8-1910.2l5.7-1910.2l42.1-90c57.4-126.3,201-273.7,329.2-335l107.2-53.6l2228-5.7c2476.8-5.7,2296.9-15.3,2337.1,124.4c15.3,49.8,21,269.9,15.3,685.2c-5.7,574.2-7.6,618.2-45.9,698.6c-55.5,120.6-174.2,222-306.3,260.3c-214.4,61.3-392.4-7.6-526.4-204.8c-166.5-245-403.9-323.5-629.7-208.6c-95.7,49.8-162.7,126.3-224,258.4c-49.8,105.3-53.6,132.1-53.6,344.5c0,206.7,5.7,239.3,49.8,335c67,141.7,134,218.2,239.3,269.9c191.4,91.9,447.9,23,570.4-151.2c157-229.7,281.4-302.4,474.7-285.2c227.8,21.1,394.3,170.4,436.4,394.3c11.5,61.2,19.1,522.5,19.1,1152.2V-52.3h1098.7h1100.6l38.3-49.8c74.6-95.7,51.7-153.1-95.7-252.7c-178-120.6-306.3-327.3-344.5-558.9c-63.2-398.1,227.8-784.8,673.7-890c160.8-36.4,449.8-36.4,597.2,1.9c363.7,93.8,635.5,371.3,673.8,687.2c38.3,300.5-93.8,564.6-409.6,811.6c-72.7,57.4-80.4,70.8-70.8,122.5c26.8,130.1,17.2,128.2,608.7,128.2h532.1v-2067.2c0-1713.1-3.8-2078.7-26.8-2130.4c-30.6-74.6-116.7-157-189.5-183.8c-36.4-15.3-645-21-1910.2-21H5591.5l-45.9-47.9c-65.1-63.2-65.1-166.5,0-231.6l45.9-45.9l1910.2,3.8l1910.2,5.7l107.2,53.6c128.3,61.3,271.8,208.6,329.2,335l42.1,90l5.7,2233.7l3.8,2233.7l-45.9,53.6l-45.9,53.6h-658.4c-587.6,0-666.1-3.8-746.5-34.4c-124.4-47.9-235.4-174.2-275.6-312c-61.3-214.4,5.7-388.6,206.7-528.3c145.5-101.4,220.1-202.9,246.9-340.7c38.3-183.7-32.5-340.7-201-455.5c-141.6-93.8-271.8-124.4-490-114.8c-279.4,13.4-468.9,112.9-557,294.8c-91.9,191.4-23,447.9,151.2,570.4c229.7,156.9,302.4,281.3,285.2,474.7c-21.1,227.8-170.4,394.3-394.3,436.4c-61.2,11.5-522.5,19.1-1152.2,19.1H5172.3v1098.7v1100.6l49.8,38.3c95.7,74.6,153.1,51.7,254.6-97.6c160.8-241.2,491.9-386.6,773.3-340.7c325.4,51.7,589.5,315.8,673.8,671.8c36.4,155,36.4,432.6,0,587.6c-137.8,585.7-713.9,861.3-1192.5,572.3c-99.5-59.3-170.4-128.2-308.2-300.5c-57.4-70.8-70.8-78.5-122.5-68.9c-130.1,26.8-128.2,17.2-128.2,608.7v532.1h2065.3c1414.5,0,2084.4-5.7,2120.8-21.1c72.7-26.8,158.9-109.1,189.5-183.8c23-51.7,26.8-384.7,26.8-1919.8V711.4l47.9-45.9c63.2-65.1,166.5-65.1,231.6,0l45.9,45.9l-3.8,1910.2l-5.7,1910.2l-53.6,107.2c-61.3,128.2-208.6,271.8-335,329.2l-90,42.1l-2233.7,5.7l-2233.7,3.8l-53.6-45.9l-53.6-45.9v-658.4c0-587.6,3.8-666.1,34.4-746.5c47.9-124.4,174.2-235.4,312-275.6c214.4-61.2,392.4,7.7,526.4,204.8c166.5,245,403.9,323.5,629.7,208.6c95.7-49.8,162.7-126.3,223.9-258.4c49.8-105.3,53.6-132.1,53.6-344.5c0-206.7-5.7-239.3-49.8-335c-26.8-57.4-72.8-132.1-101.5-166.5c-176.1-208.6-549.3-181.8-708.2,49.8c-151.2,223.9-294.8,306.2-491.9,283.3c-216.3-26.8-379-178-419.2-394.3c-11.5-61.3-19.1-522.5-19.1-1152.3V292.3H3729.1H2628.5l-38.3,49.8c-45.9,57.4-51.7,120.6-15.3,162.7c11.5,17.2,67,61.2,122.5,101.4c398.1,285.2,453.6,847.9,114.8,1186.7c-112.9,112.9-321.6,223.9-488.1,258.4c-147.4,30.6-428.8,26.8-564.6-9.6c-363.7-93.8-635.5-371.3-673.8-687.1c-38.3-300.5,93.8-564.6,409.6-811.6c72.7-57.4,80.4-70.8,70.8-122.5c-26.8-130.2-17.2-128.2-608.7-128.2H425.4v2065.3c0,1414.5,5.7,2084.4,21.1,2120.8c26.8,72.7,109.1,158.9,183.8,189.5c51.7,23,384.7,26.8,1919.8,26.8h1858.6l45.9,47.9c65.1,63.2,65.1,166.5,0,229.7l-45.9,47.9l-1881.5-1.9C1036,5018.1,628.3,5012.3,565.1,4993.2z"/></g></g>
</svg>