<?xml version="1.0" encoding="utf-8"?>
<!-- Svg Vector Icons : http://www.onlinewebfonts.com/icon -->
<!DOCTYPE svg PUBLIC "-//W3C//DTD SVG 1.1//EN" "http://www.w3.org/Graphics/SVG/1.1/DTD/svg11.dtd">
<svg version="1.1" xmlns="http://www.w3.org/2000/svg" xmlns:xlink="http://www.w3.org/1999/xlink" x="0px" y="0px" viewBox="0 0 1000 1000" enable-background="new 0 0 1000 1000" xml:space="preserve">
<metadata> Svg Vector Icons : http://www.onlinewebfonts.com/icon </metadata>
<g><g><g><path d="M446.9,10c-161.2,0-187.5,114-187.5,254.5c0,140.5,84,254.5,187.5,254.5c103.6,0,187.5-114,187.5-254.5C634.5,124,615.4,10,446.9,10z"/><path d="M446.9,990c0,0,137.7,0,253.8,0c17.7,0,34.3-2.4,49.9-6.5c-82.8-21.7-144-96.7-144-186.3c0-102,79.3-185.3,179.6-192.1c-23.4-28.5-54.4-54.2-82.8-66.3l-126.6-54.1c0,0-29,79.7-96,101.4v41.2h-23.5L509,839.2l-62,81.5l-62-81.5l51.6-211.9H413V586c-67-21.7-96-101.4-96-101.4l-126.6,54.1c-44.1,18.9-101.2,66.9-121.3,110.6c-16.6,35.9-34.1,82-44.2,132.2C1.6,896.7,76.9,990,193.1,990L446.9,990L446.9,990z"/><path d="M806.9,627.1c-95.2,0-172.4,77.2-172.4,172.4c0,95.2,77.2,172.4,172.4,172.4c95.2,0,172.4-77.2,172.4-172.4C979.3,704.3,902.1,627.1,806.9,627.1z M913.7,813.6h-19.6c-1,6-2.5,11.8-4.6,17.4l17,9.8l-14.1,24.4l-16.9-9.8c-3.8,4.6-8.1,8.9-12.7,12.7l9.8,17l-24.4,14.1l-9.8-17c-5.5,2.1-11.4,3.7-17.3,4.6v19.6h-28.2v-19.6c-6-0.9-11.8-2.5-17.3-4.6l-9.8,17l-24.4-14.1l9.8-17c-4.7-3.8-8.9-8-12.7-12.7l-17,9.7l-14.1-24.4l17-9.8c-2.1-5.6-3.7-11.4-4.6-17.4H700v-28.2h19.6c1-6,2.5-11.8,4.6-17.3l-17-9.8l14.1-24.4l17,9.8c3.8-4.6,8-8.9,12.7-12.7l-9.8-16.9l24.4-14.1l9.8,17c5.5-2.1,11.3-3.7,17.3-4.6v-19.6H821v19.6c6,1,11.8,2.5,17.3,4.6l9.8-17l24.4,14.1l-9.8,17c4.6,3.8,8.9,8,12.7,12.7l17-9.8l14.1,24.4l-17,9.8c2.1,5.5,3.7,11.4,4.6,17.3h19.6V813.6z"/><path d="M806.9,739.3c-33.2,0-60.3,27.1-60.3,60.3c0,33.3,27.1,60.3,60.3,60.3c33.2,0,60.3-27,60.3-60.3C867.2,766.3,840.1,739.3,806.9,739.3z"/></g></g><g></g><g></g><g></g><g></g><g></g><g></g><g></g><g></g><g></g><g></g><g></g><g></g><g></g><g></g><g></g></g>
</svg>